# xmcd CD database file
#
# Track frame offsets:
#	150
#	20883
#	43573
#	68473
#	90610
#	104725
#	132085
#	161220
#	186670
#	199645
#	210513
#	231493
#	244163
#
# Disc length: 3521 seconds
#
# Revision: 0
# Processed by: cddbd v1.4PL0 Copyright (c) Steve Scherf et al.
# Submitted via: CDex 1.50Beta7
#
DISCID=be0dbf0d
DTITLE=Randy Morriss - Passages
DYEAR=1900
DGENRE=New Age
TTITLE0=Winter Solstice Sunrise
TTITLE1=Passages
TTITLE2=Equinox
TTITLE3=Echoes Of The Moon
TTITLE4=Spring Fete
TTITLE5=Summer Solstice
TTITLE6=Firedance
TTITLE7=October Song
TTITLE8=On The Avenue
TTITLE9=Musings
TTITLE10=Full Circle
TTITLE11=Spirit Blue
TTITLE12=Celebration
EXTD=
EXTT0=
EXTT1=
EXTT2=
EXTT3=
EXTT4=
EXTT5=
EXTT6=
EXTT7=
EXTT8=
EXTT9=
EXTT10=
EXTT11=
EXTT12=
PLAYORDER=
